<?xml version="1.0" encoding="utf-8"?>
<!-- Generator: Adobe Illustrator 19.1.0, SVG Export Plug-In . SVG Version: 6.00 Build 0)  -->
<svg version="1.1" id="Layer_1" xmlns="http://www.w3.org/2000/svg" xmlns:xlink="http://www.w3.org/1999/xlink" x="0px" y="0px"
	 viewBox="0 0 303.1 179.8" style="enable-background:new 0 0 303.1 179.8;" xml:space="preserve">
<style type="text/css">
	.st0{fill:url(#path6438_1_);}
	.st1{fill:#F15A29;}
	.st2{fill:#FFFFFF;}
</style>
<linearGradient id="path6438_1_" gradientUnits="userSpaceOnUse" x1="-123.4287" y1="395.1709" x2="-123.3934" y2="395.1709" gradientTransform="matrix(8501.1533 0 0 -5012.4395 1049288 1980860)">
	<stop  offset="1" style="stop-color:#84B8E3"/>
	<stop  offset="1" style="stop-color:#85471E"/>
</linearGradient>
<path id="path6438" class="st0" d="M160.1,1.3C131.7,1.4,104,22.7,95.2,53.2c-12.8-7.3-30,1.1-34.2,16.6c-0.7,2.3-1.1,4.8-1.2,7.2
	c-20.1-4-43.9,3.4-54.7,24.1c-7.2,13.5-3.7,31.8,6.6,42c16.7,17.8,43.9,19.7,63.9,9.1c6.5,19.5,27.5,30.5,45,23.3
	c5.6-2,10.6-6.1,14.7-10.5c15,8.2,34,6.7,47.5-4.3c21.7,24.6,61.3,23.6,81.7-2.5c2.4-1.9,3.1-7.4,6.7-6.1
	c16.5,1.3,32-15.3,30.7-34.1c-0.5-19.3-18.3-34.2-34.9-30.2c-3.4,1.6-4.7-4.1-7.6-5.6c-8-7.9-18.6-12.2-28.5-14.4
	c-3-33.7-28.9-61.3-58.3-65.7C168.3,1.5,164.2,1.2,160.1,1.3L160.1,1.3z"/>
<path class="st1" d="M135.9,50.8c0.3-1,0.6-1.9,1.2-2.8c1.1-1.7,2.6-3.1,4.3-4.1c1.5-0.9,3.1-1.7,4.6-2.5c0.1,0,0.3,0,0.4,0.1
	c1.2,1.3,2,2.8,2.5,4.4c0.2,0.7,0.4,1.4,0.6,2.1c0,0.1,0.1,0.2,0.2,0.4c0.7-3.8,0.6-4.8-0.3-8.1c0.2,0,0.4-0.1,0.6-0.1
	c1.2-0.1,2.4-0.2,3.5-0.3c0.1,0,0.3,0.1,0.3,0.2c0.9,2.3,1.5,4.8,1.5,7.3c0,0.3,0,0.6-0.1,0.9c1.1-1.4,1.6-2.9,2-4.4
	c0.4-1.6,0.5-3.2,0.3-4.8c0.7,0,1.4-0.1,2-0.1c1.1,0.1,2.3,0.2,3.4,0.3c0.2,0,0.3,0.1,0.4,0.3c0.6,2.1,0.8,4.3,0.6,6.5
	c0,0.7-0.1,1.3-0.1,2.1c0.3-0.3,0.5-0.5,0.8-0.8c1.9-2.5,3-5.4,2.9-8.6c0-0.6,0-0.6,0.6-0.7c0.9,0,1.9,0,2.8,0
	c0.3,0,0.4,0.2,0.5,0.5c0.8,3.1,1.3,6.2,1.2,9.4c0,0,0,0.1,0,0.2c1-1.4,1.5-2.9,1.9-4.4c0.4-1.6,0.5-3.1,0.4-4.8
	c0.5,0.2,1,0.3,1.5,0.5c1.3,0.5,2.6,1.2,3.7,2c1.7,1.2,3.2,2.6,4.4,4.3c1.1,1.6,1.9,3.4,2.2,5.3c0,0.1,0.1,0.2,0.1,0.3
	c0,0.5,0,1,0,1.5c0,0.1-0.1,0.2-0.1,0.3c-0.3,1.5-1,2.8-2.1,3.8c-1.3,1.2-2.8,1.8-4.4,2.2c-4,1.2-8.1,1.8-12.2,2.1
	c-4.5,0.3-9,0.2-13.6-0.1c-2.8-0.2-5.6-0.4-8.3-1c-2.5-0.5-5-1.1-7.1-2.8c-1.5-1.2-2.6-2.6-3.1-4.4c-0.1-0.4-0.2-0.7-0.3-1.1
	C135.9,51.6,135.9,51.2,135.9,50.8z"/>
<g>
	<path class="st1" d="M128.9,92c-0.1-3.8-0.3-8.3-0.3-12.9h-0.1c-1,4-2.3,8.4-3.5,12.1l-3.8,12.2h-5.5l-3.3-12.1
		c-1-3.7-2.1-8.1-2.8-12.2h-0.1c-0.2,4.2-0.3,9-0.6,12.9l-0.6,11.9h-6.5l2-31.3h9.4l3.1,10.4c1,3.6,1.9,7.5,2.6,11.2h0.1
		c0.9-3.6,1.9-7.7,3-11.2l3.3-10.4h9.2l1.7,31.3h-6.9L128.9,92z"/>
	<path class="st1" d="M145.2,96l-2.2,8h-7.3l9.6-31.3h9.3l9.7,31.3h-7.6l-2.4-8H145.2z M153.1,90.7l-1.9-6.6c-0.6-1.9-1.1-4.2-1.6-6
		h-0.1c-0.5,1.9-0.9,4.2-1.4,6l-1.9,6.6H153.1z"/>
	<path class="st1" d="M164.6,104V72.7h8.3l6.5,11.5c1.9,3.3,3.7,7.2,5.1,10.7h0.1c-0.5-4.1-0.6-8.4-0.6-13v-9.1h6.5V104h-7.4
		l-6.7-12.1c-1.9-3.3-3.9-7.4-5.4-11l-0.1,0c0.2,4.1,0.3,8.5,0.3,13.6v9.4H164.6z"/>
	<path class="st1" d="M200.2,96l-2.2,8h-7.3l9.6-31.3h9.3l9.7,31.3h-7.6l-2.4-8H200.2z M208.2,90.7l-1.9-6.6c-0.6-1.9-1.1-4.2-1.6-6
		h-0.1c-0.5,1.9-0.9,4.2-1.4,6l-1.9,6.6H208.2z M212.9,65.3l-5.7,5.7h-5.7l3.9-5.7H212.9z"/>
</g>
<g>
	<path class="st2" d="M141.5,91.4c-0.1,0.5-0.5,1.5-1.3,2.8c-0.7,1.4-1.7,3.1-2.8,5.1c-1.1,2-2.4,4.3-3.8,6.8
		c-1.4,2.5-2.7,5.2-4.1,8c-0.6,1.3-1.3,2.6-1.9,4c-0.6,1.4-1.2,2.7-1.6,4c-0.5,1.3-0.9,2.5-1.2,3.6c-0.3,1.1-0.5,2-0.5,2.7
		c0,1.1,0.3,1.6,1,1.6c0.3,0,0.7-0.1,1.1-0.4c0.4-0.3,0.8-0.6,1.2-0.9c0.4-0.4,0.8-0.9,1.2-1.4h0.1l0.2-0.1l0.2,0.1h0.1v0.1v0.1
		c-0.6,1.1-1.4,2.1-2.3,2.9c-0.9,0.8-1.9,1.3-3.1,1.3c-0.5,0-1-0.2-1.3-0.5c-0.3-0.3-0.6-0.7-0.7-1.1c-0.2-0.4-0.3-0.9-0.4-1.6v-0.4
		c0-0.9,0.1-1.8,0.3-2.8c0.2-1,0.5-1.9,0.7-2.9c-0.6,0.9-1.4,1.9-2.1,3c-0.8,1.1-1.6,2.1-2.5,3c-0.9,0.9-1.8,1.7-2.7,2.3
		c-0.9,0.6-1.8,0.9-2.6,0.9h-0.1c-1-0.1-1.8-0.5-2.3-1.3c-0.6-0.8-0.8-1.9-0.8-3.4c-0.1-1.8,0.4-3.7,1.2-5.9c0.9-2.2,2-4.2,3.5-6.1
		c1.4-1.9,3.1-3.5,5-4.9c1.9-1.3,3.8-2,5.8-2c1.5,0,2.6,0.6,3.2,1.7c1.2-2.3,2.3-4.6,3.4-6.7c1.1-2.1,2.1-4,2.9-5.6s1.6-3,2.2-4.1
		c0.6-1.1,1.1-1.9,1.4-2.4c0.4-0.7,0.7-1.4,0.8-2.1c0.1-0.7,0.4-1.1,0.7-1.1c0.5,0,0.9,0.2,1.4,0.7c0.4,0.5,0.7,1.2,0.7,2
		C141.5,90.9,141.5,91.2,141.5,91.4z M127.2,111.2c0-1.1-0.6-1.6-1.8-1.6c-1.8,0-3.4,0.7-4.9,2.2c-1.5,1.5-2.8,3.2-4,5.2
		c-1.1,2-2,4-2.7,5.9c-0.6,2-1,3.4-1,4.3c0,1.5,0.4,2.2,1.2,2.2c0.6,0,1.3-0.4,2.2-1.1c0.9-0.7,1.8-1.7,2.8-2.8
		c1-1.1,1.9-2.3,2.7-3.5c0.8-1.3,1.5-2.4,2.1-3.5c0.5-0.9,1-2,1.6-3.3c0.6-1.3,1.2-2.6,1.8-3.7V111.2z"/>
	<path class="st2" d="M142.8,109.2c0.8,0.1,1.3,0.4,1.7,1c0.4,0.6,0.6,1.3,0.7,2.2c0.1,0.9,0.1,1.7,0,2.6c-0.1,0.9-0.3,1.6-0.4,2.2
		h0.1c0.8,0.5,1.6,0.5,2.5-0.1s1.5-1.3,1.9-2.1l0.4,0.4c-0.5,1.1-1.2,2-2.1,2.5c-0.9,0.6-2,0.7-3.2,0.4l-1,2.1
		c-0.6,1.4-1.3,2.7-2.2,4c-0.9,1.4-1.9,2.6-2.9,3.7c-1.1,1.1-2.1,2-3.2,2.7c-1.1,0.7-2.1,1.1-3,1.1h-0.4c-1.2,0-2.1-0.6-2.7-1.8
		c-0.6-1.2-0.8-2.7-0.7-4.6c0.1-1.3,0.5-3,1.3-5.1c0.8-2,1.8-4,2.9-5.9c1.2-1.9,2.5-3.5,4-4.9c1.5-1.3,3-2,4.6-2
		c0.7,0,1.3,0.1,1.8,0.4c0.5,0.3,0.7,0.6,0.7,0.8c0,0.4-0.2,0.6-0.6,0.6c-0.2,0-0.4,0-0.5-0.1c-0.1-0.1-0.3-0.1-0.6-0.1
		c-1.2,0-2.4,0.7-3.5,2.1c-1.2,1.4-2.3,3-3.2,4.8c-1,1.8-1.8,3.7-2.4,5.6c-0.6,1.9-1,3.3-1,4.4c-0.1,1.2,0,2.1,0.3,2.8
		c0.2,0.7,0.6,1.1,1.1,1.1c0.6-0.1,1.3-0.4,2.2-1s1.8-1.4,2.7-2.4c0.9-1,1.8-2,2.6-3.2c0.8-1.2,1.6-2.4,2.1-3.6
		c0.1-0.2,0.2-0.4,0.3-0.6c0.1-0.2,0.3-0.7,0.7-1.4c-0.1,0-0.1,0-0.2-0.1l-0.7-0.5c-0.6-0.7-1.1-1.5-1.3-2.5c-0.2-1-0.3-1.9-0.2-2.6
		c0-0.5,0.1-1,0.3-1.6C141.7,109.7,142.1,109.4,142.8,109.2z M143.7,116.4c0.1-0.8,0-1.5-0.2-2.3c-0.2-0.8-0.4-1.5-0.6-2.1l-0.2-0.5
		c-0.2,0.4-0.3,0.8-0.3,1.3c0,0.5,0.1,1,0.2,1.5c0.1,0.5,0.3,1,0.5,1.4C143.4,116.1,143.6,116.4,143.7,116.4z"/>
	<path class="st2" d="M179.1,122c0.1,0.1,0.1,0.1,0.1,0.3c0,0.2-0.1,0.5-0.2,0.7c-0.1,0.2-0.2,0.4-0.4,0.5c-0.6,1-1.4,2-2.4,3
		c-1,1-2,1.9-3.2,2.6c-1.1,0.8-2.3,1.4-3.6,1.8c-1.3,0.5-2.5,0.7-3.7,0.7c-1.3,0-2.4-0.5-3.2-1.4c-0.8-0.9-1.1-2.4-1-4.4
		c0.1-1.3,0.5-2.9,1.2-5c0.8-2,1.8-4,3.1-5.9c1.3-1.9,2.9-3.5,4.6-4.9c1.8-1.3,3.7-2,5.8-2c0.8,0,1.5,0.2,2,0.6
		c0.5,0.4,0.8,1,0.7,1.8c0,0.4-0.2,1.1-0.6,2l-0.2,0.2c-0.4,0-0.5-0.2-0.5-0.5c0.2-0.4,0.3-0.8,0.3-1.1c0-0.5-0.1-0.8-0.3-1.1
		c-0.2-0.3-0.5-0.4-1-0.4c-1.3,0-2.7,0.6-4,1.8c-1.3,1.2-2.5,2.6-3.6,4.3c-1.1,1.7-2,3.4-2.6,5.2c-0.7,1.8-1,3.3-1.1,4.5
		c-0.2,3.1,0.7,4.6,2.7,4.6c0.7,0,1.5-0.2,2.4-0.6s1.8-0.9,2.7-1.5c0.9-0.6,1.8-1.4,2.6-2.2c0.8-0.8,1.5-1.7,2.1-2.7
		c0.3-0.5,0.5-0.8,0.6-0.9c0.1-0.1,0.2-0.2,0.4-0.2h0.2V122z"/>
	<path class="st2" d="M193.3,111.9c0,1.5-0.7,2.8-2.1,3.8c-1.4,1-3.2,1.5-5.4,1.5c-1.1,0-1.8-0.1-2.1-0.4c-1,1.8-1.7,3.6-2.2,5.4
		c-0.5,1.8-0.7,3.3-0.7,4.7c0,1,0.1,1.8,0.4,2.5c0.3,0.7,0.7,1,1.2,1c2,0,3.8-0.7,5.2-2.1s2.7-2.9,3.9-4.6l0.4-0.4
		c0.1-0.2,0.3-0.3,0.4-0.1c0.2,0.2,0.2,0.4,0.2,0.5l-0.3,0.4c-0.6,0.9-1.3,1.8-2,2.7c-0.7,0.9-1.5,1.8-2.5,2.5
		c-0.9,0.7-2,1.3-3.1,1.8c-1.1,0.4-2.4,0.6-3.8,0.6h-0.1c-1.1,0-2-0.5-2.7-1.5c-0.7-1-1-2.4-1-4.1c0-1.4,0.4-3.1,1.1-5.2
		c0.8-2,1.8-4,3-5.8s2.6-3.4,4.2-4.7c1.6-1.3,3.2-2,4.9-2c0.8,0,1.5,0.2,1.9,0.6c0.5,0.4,0.8,1.2,1.1,2.4V111.9z M192.5,112.1
		c0-0.5-0.1-1-0.4-1.6c-0.3-0.6-0.7-0.9-1.1-0.9c-0.7,0-1.8,0.6-3.2,1.9c-1.4,1.3-2.7,2.9-3.9,4.9c0.3,0.1,0.6,0.2,0.9,0.2
		c0.3,0,0.7,0.1,1.1,0.1c0.8,0,1.5-0.1,2.4-0.4c0.8-0.2,1.5-0.6,2.1-1s1.1-0.9,1.5-1.5C192.3,113.5,192.5,112.8,192.5,112.1z
		 M193.8,101.5c0,0.1-0.1,0.3-0.3,0.6c-0.2,0.3-0.5,0.5-1,0.8c-0.5,0.3-1.1,0.6-1.8,0.8c-0.7,0.2-1.6,0.4-2.6,0.4
		c0.5-0.9,1-1.6,1.4-2.1c0.4-0.5,0.8-0.8,1.2-1c0.4-0.2,0.7-0.3,1-0.3c0.3,0,0.6,0,0.8,0c0.4,0,0.7,0.1,0.9,0.2
		C193.7,101.1,193.9,101.3,193.8,101.5C193.9,101.5,193.8,101.5,193.8,101.5z"/>
	<path class="st2" d="M211.8,107.6c0.2,0,0.6,0.2,1.1,0.7c0.6,0.5,0.9,1.1,0.9,1.8c0,0.4-0.1,0.7-0.2,0.9c-0.8,1.5-1.2,2.5-1.4,2.8
		c-0.2,0.4-0.3,0.6-0.4,0.9c-0.7,1.2-1.4,2.4-2,3.8c-0.6,1.4-1.2,2.7-1.8,4c-0.5,1.3-1,2.5-1.3,3.5c-0.3,1.1-0.5,2-0.5,2.7
		c0,0.9,0.3,1.3,1,1.3c0.4,0,0.7-0.1,1.1-0.4c0.4-0.3,0.8-0.6,1.1-0.9c0.4-0.4,0.8-0.9,1.3-1.4h0.1l0.2-0.1c0.1,0,0.1,0,0.3,0
		c0.1,0,0.1,0.1,0,0.2c-0.7,1.2-1.5,2.2-2.5,3c-0.9,0.8-2,1.2-3.2,1.2c-0.6,0-1-0.2-1.4-0.5c-0.3-0.4-0.5-0.8-0.7-1.2
		c-0.2-0.5-0.3-1.1-0.3-1.8c0-0.9,0.1-1.8,0.3-2.6c-1.1,1.5-2.4,2.9-4,4.2c-1.5,1.3-3.3,2-5.3,2c-0.6,0-1.1-0.1-1.5-0.4
		s-0.6-0.6-0.8-1c-0.2-0.4-0.3-0.8-0.3-1.1c0-0.4,0-0.7,0-0.8c0-1.6,0.3-3.4,0.9-5.3c0.6-1.9,1.4-3.7,2.3-5.6c1.8-3.6,3-6.2,3.8-7.7
		c0.8-1.5,1.2-2.2,1.4-2.2c0.2,0,0.6,0.2,1.1,0.7c0.6,0.5,0.9,1.1,0.9,1.8c0,0.4-0.1,0.7-0.2,0.9c-0.4,0.8-0.7,1.4-0.9,1.8
		c-0.2,0.4-0.4,0.8-0.5,1s-0.2,0.4-0.3,0.5c-0.1,0.1-0.1,0.2-0.2,0.4c-0.6,1.2-1.3,2.4-2,3.8c-0.7,1.3-1.3,2.7-1.8,4
		c-0.5,1.3-1,2.5-1.3,3.7s-0.5,2-0.5,2.7c0,0.5,0.1,0.8,0.2,0.9c0.1,0.1,0.4,0.2,0.8,0.2c0.8,0,1.6-0.2,2.5-0.6
		c0.8-0.4,1.6-0.9,2.3-1.5c0.7-0.6,1.4-1.3,2.1-2.1c0.6-0.8,1.2-1.5,1.7-2.1c0.3-1,0.7-2,1.1-3.1c0.5-1.1,0.9-2.1,1.4-3.1
		c1.2-2.5,2.1-4.3,2.8-5.6c0.7-1.3,1.2-2.2,1.5-2.8c0.3-0.6,0.5-1,0.6-1.1C211.6,107.8,211.7,107.7,211.8,107.6L211.8,107.6z"/>
</g>
</svg>
